<?xml version="1.0" standalone="no"?>
<!DOCTYPE svg PUBLIC "-//W3C//DTD SVG 20010904//EN"
 "http://www.w3.org/TR/2001/REC-SVG-20010904/DTD/svg10.dtd">
<svg version="1.0" xmlns="http://www.w3.org/2000/svg"
 width="700.000000pt" height="700.000000pt" viewBox="0 0 700.000000 700.000000"
 preserveAspectRatio="xMidYMid meet">
<metadata>
Created by potrace 1.11, written by Peter Selinger 2001-2013
</metadata>
<g transform="translate(0.000000,700.000000) scale(0.100000,-0.100000)"
fill="#000000" stroke="none">
<path d="M386 6985 c-184 -51 -328 -197 -371 -376 -22 -95 -22 -1452 1 -1548
41 -176 182 -323 359 -373 55 -16 157 -17 1230 -17 1127 -1 1172 0 1234 19
167 50 295 177 346 345 l24 77 1 707 c0 476 -3 726 -11 766 -35 188 -185 349
-374 398 -53 14 -201 15 -1225 15 -942 0 -1174 -2 -1214 -13z m2307 -424 c23
-1 45 -9 57 -21 20 -20 20 -33 20 -703 0 -674 0 -684 -20 -705 -12 -12 -26
-22 -33 -23 -7 0 -507 -2 -1112 -3 -1171 -1 -1145 -2 -1161 46 -3 12 -7 321
-7 688 0 697 0 702 43 718 14 5 1994 8 2213 3z"/>
<path d="M4176 6984 c-191 -46 -342 -210 -376 -406 -7 -44 -10 -549 -8 -1658
l3 -1595 22 -60 c64 -167 197 -288 364 -331 58 -15 181 -16 1224 -16 l1160 0
79 26 c130 44 233 129 295 246 65 121 61 26 59 1802 l-3 1613 -22 53 c-70 170
-188 279 -353 323 -60 16 -148 18 -1225 17 -966 0 -1170 -2 -1219 -14z m2337
-428 c14 -3 32 -16 38 -28 9 -17 12 -396 11 -1548 0 -839 -1 -1537 -1 -1551
-1 -15 -9 -37 -20 -50 l-18 -23 -1109 -1 c-623 0 -1121 3 -1137 8 -15 5 -32
17 -37 27 -6 12 -10 578 -10 1572 0 1630 -2 1572 42 1594 19 10 2200 11 2241
0z"/>
<path d="M477 4084 c-1 -1 -22 -4 -47 -7 -190 -23 -369 -189 -416 -387 -18
-73 -20 -3181 -3 -3275 26 -144 132 -288 260 -353 131 -66 46 -62 1344 -59
649 2 1187 5 1195 8 8 3 33 11 55 19 123 41 235 141 290 257 56 118 54 28 54
1753 1 1415 -1 1602 -15 1654 -51 195 -201 338 -399 382 -25 5 -2312 13 -2318
8z m2272 -458 l21 -19 0 -1563 0 -1563 -22 -21 c-13 -12 -36 -20 -57 -21 -20
0 -522 0 -1117 -1 -774 0 -1087 3 -1102 11 -11 6 -24 21 -28 33 -4 13 -7 719
-7 1570 0 1654 -2 1569 48 1588 11 4 520 7 1131 6 1078 -1 1113 -2 1133 -20z"/>
<path d="M4277 2334 c-1 -1 -25 -4 -54 -8 -154 -18 -310 -133 -378 -279 -19
-40 -38 -88 -42 -107 -4 -19 -8 -370 -8 -780 0 -708 1 -748 19 -804 50 -151
174 -276 326 -328 l65 -23 1195 0 1195 0 60 23 c78 30 160 84 212 141 43 46
106 161 120 216 4 17 9 363 10 770 2 692 1 744 -16 800 -59 195 -206 334 -393
371 -26 5 -2305 13 -2311 8z m2264 -463 c10 -13 19 -33 20 -45 5 -122 0 -1328
-5 -1344 -4 -12 -17 -27 -28 -33 -15 -8 -328 -11 -1092 -11 -589 1 -1092 1
-1118 1 -35 1 -52 7 -68 23 -20 21 -20 31 -20 701 0 461 3 685 11 698 6 11 20
24 31 28 11 4 522 7 1135 7 l1115 -1 19 -24z"/>
</g>
</svg>
